Coordinates
version=1
nRows=50
nColumns=16
inDegrees=yes
endheader
time	shoulder_elv_r	shoulder_elv_l	elv_angle_r	elv_angle_l	elbow_flexion_r	elbow_flexion_l	shoulder_rot_r	shoulder_rot_l	pro_sup_r	pro_sup_l	hip_flexion_r	hip_flexion_l	knee_angle_r	knee_angle_l	lumbar_extension
0.000000	0.000000	0.000000	0.000000	0.000000	10.000000	10.000000	-10.000000	-10.000000	-40.000000	-40.000000	0.000000	0.000000	0.000000	0.000000	0.000000
0.040816	1.836735	1.836735	0.000000	0.000000	10.000000	10.000000	-10.000000	-10.000000	-40.000000	-40.000000	0.000000	0.000000	0.000000	0.000000	0.000000
0.081633	3.673469	3.673469	0.000000	0.000000	10.000000	10.000000	-10.000000	-10.000000	-40.000000	-40.000000	0.000000	0.000000	0.000000	0.000000	0.000000
0.122449	5.510204	5.510204	0.000000	0.000000	10.000000	10.000000	-10.000000	-10.000000	-40.000000	-40.000000	0.000000	0.000000	0.000000	0.000000	0.000000
0.163265	7.346939	7.346939	0.000000	0.000000	10.000000	10.000000	-10.000000	-10.000000	-40.000000	-40.000000	0.000000	0.000000	0.000000	0.000000	0.000000
0.204082	9.183673	9.183673	0.000000	0.000000	10.000000	10.000000	-10.000000	-10.000000	-40.000000	-40.000000	0.000000	0.000000	0.000000	0.000000	0.000000
0.244898	11.020408	11.020408	0.000000	0.000000	10.000000	10.000000	-10.000000	-10.000000	-40.000000	-40.000000	0.000000	0.000000	0.000000	0.000000	0.000000
0.285714	12.857143	12.857143	0.000000	0.000000	10.000000	10.000000	-10.000000	-10.000000	-40.000000	-40.000000	0.000000	0.000000	0.000000	0.000000	0.000000
0.326531	14.693878	14.693878	0.000000	0.000000	10.000000	10.000000	-10.000000	-10.000000	-40.000000	-40.000000	0.000000	0.000000	0.000000	0.000000	0.000000
0.367347	16.530612	16.530612	0.000000	0.000000	10.000000	10.000000	-10.000000	-10.000000	-40.000000	-40.000000	0.000000	0.000000	0.000000	0.000000	0.000000
0.408163	18.367347	18.367347	0.000000	0.000000	10.000000	10.000000	-10.000000	-10.000000	-40.000000	-40.000000	0.000000	0.000000	0.000000	0.000000	0.000000
0.448980	20.204082	20.204082	0.000000	0.000000	10.000000	10.000000	-10.000000	-10.000000	-40.000000	-40.000000	0.000000	0.000000	0.000000	0.000000	0.000000
0.489796	22.040816	22.040816	0.000000	0.000000	10.000000	10.000000	-10.000000	-10.000000	-40.000000	-40.000000	0.000000	0.000000	0.000000	0.000000	0.000000
0.530612	23.877551	23.877551	0.000000	0.000000	10.000000	10.000000	-10.000000	-10.000000	-40.000000	-40.000000	0.000000	0.000000	0.000000	0.000000	0.000000
0.571429	25.714286	25.714286	0.000000	0.000000	10.000000	10.000000	-10.000000	-10.000000	-40.000000	-40.000000	0.000000	0.000000	0.000000	0.000000	0.000000
0.612245	27.551020	27.551020	0.000000	0.000000	10.000000	10.000000	-10.000000	-10.000000	-40.000000	-40.000000	0.000000	0.000000	0.000000	0.000000	0.000000
0.653061	29.387755	29.387755	0.000000	0.000000	10.000000	10.000000	-10.000000	-10.000000	-40.000000	-40.000000	0.000000	0.000000	0.000000	0.000000	0.000000
0.693878	31.224490	31.224490	0.000000	0.000000	10.000000	10.000000	-10.000000	-10.000000	-40.000000	-40.000000	0.000000	0.000000	0.000000	0.000000	0.000000
0.734694	33.061224	33.061224	0.000000	0.000000	10.000000	10.000000	-10.000000	-10.000000	-40.000000	-40.000000	0.000000	0.000000	0.000000	0.000000	0.000000
0.775510	34.897959	34.897959	0.000000	0.000000	10.000000	10.000000	-10.000000	-10.000000	-40.000000	-40.000000	0.000000	0.000000	0.000000	0.000000	0.000000
0.816327	36.734694	36.734694	0.000000	0.000000	10.000000	10.000000	-10.000000	-10.000000	-40.000000	-40.000000	0.000000	0.000000	0.000000	0.000000	0.000000
0.857143	38.571429	38.571429	0.000000	0.000000	10.000000	10.000000	-10.000000	-10.000000	-40.000000	-40.000000	0.000000	0.000000	0.000000	0.000000	0.000000
0.897959	40.408163	40.408163	0.000000	0.000000	10.000000	10.000000	-10.000000	-10.000000	-40.000000	-40.000000	0.000000	0.000000	0.000000	0.000000	0.000000
0.938776	42.244898	42.244898	0.000000	0.000000	10.000000	10.000000	-10.000000	-10.000000	-40.000000	-40.000000	0.000000	0.000000	0.000000	0.000000	0.000000
0.979592	44.081633	44.081633	0.000000	0.000000	10.000000	10.000000	-10.000000	-10.000000	-40.000000	-40.000000	0.000000	0.000000	0.000000	0.000000	0.000000
1.020408	45.918367	45.918367	0.000000	0.000000	10.000000	10.000000	-10.000000	-10.000000	-40.000000	-40.000000	0.000000	0.000000	0.000000	0.000000	0.000000
1.061224	47.755102	47.755102	0.000000	0.000000	10.000000	10.000000	-10.000000	-10.000000	-40.000000	-40.000000	0.000000	0.000000	0.000000	0.000000	0.000000
1.102041	49.591837	49.591837	0.000000	0.000000	10.000000	10.000000	-10.000000	-10.000000	-40.000000	-40.000000	0.000000	0.000000	0.000000	0.000000	0.000000
1.142857	51.428571	51.428571	0.000000	0.000000	10.000000	10.000000	-10.000000	-10.000000	-40.000000	-40.000000	0.000000	0.000000	0.000000	0.000000	0.000000
1.183673	53.265306	53.265306	0.000000	0.000000	10.000000	10.000000	-10.000000	-10.000000	-40.000000	-40.000000	0.000000	0.000000	0.000000	0.000000	0.000000
1.224490	55.102041	55.102041	0.000000	0.000000	10.000000	10.000000	-10.000000	-10.000000	-40.000000	-40.000000	0.000000	0.000000	0.000000	0.000000	0.000000
1.265306	56.938776	56.938776	0.000000	0.000000	10.000000	10.000000	-10.000000	-10.000000	-40.000000	-40.000000	0.000000	0.000000	0.000000	0.000000	0.000000
1.306122	58.775510	58.775510	0.000000	0.000000	10.000000	10.000000	-10.000000	-10.000000	-40.000000	-40.000000	0.000000	0.000000	0.000000	0.000000	0.000000
1.346939	60.612245	60.612245	0.000000	0.000000	10.000000	10.000000	-10.000000	-10.000000	-40.000000	-40.000000	0.000000	0.000000	0.000000	0.000000	0.000000
1.387755	62.448980	62.448980	0.000000	0.000000	10.000000	10.000000	-10.000000	-10.000000	-40.000000	-40.000000	0.000000	0.000000	0.000000	0.000000	0.000000
1.428571	64.285714	64.285714	0.000000	0.000000	10.000000	10.000000	-10.000000	-10.000000	-40.000000	-40.000000	0.000000	0.000000	0.000000	0.000000	0.000000
1.469388	66.122449	66.122449	0.000000	0.000000	10.000000	10.000000	-10.000000	-10.000000	-40.000000	-40.000000	0.000000	0.000000	0.000000	0.000000	0.000000
1.510204	67.959184	67.959184	0.000000	0.000000	10.000000	10.000000	-10.000000	-10.000000	-40.000000	-40.000000	0.000000	0.000000	0.000000	0.000000	0.000000
1.551020	69.795918	69.795918	0.000000	0.000000	10.000000	10.000000	-10.000000	-10.000000	-40.000000	-40.000000	0.000000	0.000000	0.000000	0.000000	0.000000
1.591837	71.632653	71.632653	0.000000	0.000000	10.000000	10.000000	-10.000000	-10.000000	-40.000000	-40.000000	0.000000	0.000000	0.000000	0.000000	0.000000
1.632653	73.469388	73.469388	0.000000	0.000000	10.000000	10.000000	-10.000000	-10.000000	-40.000000	-40.000000	0.000000	0.000000	0.000000	0.000000	0.000000
1.673469	75.306122	75.306122	0.000000	0.000000	10.000000	10.000000	-10.000000	-10.000000	-40.000000	-40.000000	0.000000	0.000000	0.000000	0.000000	0.000000
1.714286	77.142857	77.142857	0.000000	0.000000	10.000000	10.000000	-10.000000	-10.000000	-40.000000	-40.000000	0.000000	0.000000	0.000000	0.000000	0.000000
1.755102	78.979592	78.979592	0.000000	0.000000	10.000000	10.000000	-10.000000	-10.000000	-40.000000	-40.000000	0.000000	0.000000	0.000000	0.000000	0.000000
1.795918	80.816327	80.816327	0.000000	0.000000	10.000000	10.000000	-10.000000	-10.000000	-40.000000	-40.000000	0.000000	0.000000	0.000000	0.000000	0.000000
1.836735	82.653061	82.653061	0.000000	0.000000	10.000000	10.000000	-10.000000	-10.000000	-40.000000	-40.000000	0.000000	0.000000	0.000000	0.000000	0.000000
1.877551	84.489796	84.489796	0.000000	0.000000	10.000000	10.000000	-10.000000	-10.000000	-40.000000	-40.000000	0.000000	0.000000	0.000000	0.000000	0.000000
1.918367	86.326531	86.326531	0.000000	0.000000	10.000000	10.000000	-10.000000	-10.000000	-40.000000	-40.000000	0.000000	0.000000	0.000000	0.000000	0.000000
1.959184	88.163265	88.163265	0.000000	0.000000	10.000000	10.000000	-10.000000	-10.000000	-40.000000	-40.000000	0.000000	0.000000	0.000000	0.000000	0.000000
2.000000	90.000000	90.000000	0.000000	0.000000	10.000000	10.000000	-10.000000	-10.000000	-40.000000	-40.000000	0.000000	0.000000	0.000000	0.000000	0.000000
